%TF.GenerationSoftware,KiCad,Pcbnew,(6.0.2-0)*%
%TF.CreationDate,2022-04-12T18:59:20-07:00*%
%TF.ProjectId,bootstrap_exp,626f6f74-7374-4726-9170-5f6578702e6b,rev?*%
%TF.SameCoordinates,Original*%
%TF.FileFunction,Soldermask,Top*%
%TF.FilePolarity,Negative*%
%FSLAX46Y46*%
G04 Gerber Fmt 4.6, Leading zero omitted, Abs format (unit mm)*
G04 Created by KiCad (PCBNEW (6.0.2-0)) date 2022-04-12 18:59:20*
%MOMM*%
%LPD*%
G01*
G04 APERTURE LIST*
G04 Aperture macros list*
%AMRoundRect*
0 Rectangle with rounded corners*
0 $1 Rounding radius*
0 $2 $3 $4 $5 $6 $7 $8 $9 X,Y pos of 4 corners*
0 Add a 4 corners polygon primitive as box body*
4,1,4,$2,$3,$4,$5,$6,$7,$8,$9,$2,$3,0*
0 Add four circle primitives for the rounded corners*
1,1,$1+$1,$2,$3*
1,1,$1+$1,$4,$5*
1,1,$1+$1,$6,$7*
1,1,$1+$1,$8,$9*
0 Add four rect primitives between the rounded corners*
20,1,$1+$1,$2,$3,$4,$5,0*
20,1,$1+$1,$4,$5,$6,$7,0*
20,1,$1+$1,$6,$7,$8,$9,0*
20,1,$1+$1,$8,$9,$2,$3,0*%
G04 Aperture macros list end*
%ADD10RoundRect,0.200000X-0.200000X-0.275000X0.200000X-0.275000X0.200000X0.275000X-0.200000X0.275000X0*%
%ADD11RoundRect,0.225000X0.250000X-0.225000X0.250000X0.225000X-0.250000X0.225000X-0.250000X-0.225000X0*%
%ADD12RoundRect,0.250000X-0.412500X-0.925000X0.412500X-0.925000X0.412500X0.925000X-0.412500X0.925000X0*%
%ADD13R,0.650000X0.400000*%
%ADD14C,2.800000*%
%ADD15RoundRect,0.200000X0.200000X0.275000X-0.200000X0.275000X-0.200000X-0.275000X0.200000X-0.275000X0*%
%ADD16RoundRect,0.250000X0.412500X0.925000X-0.412500X0.925000X-0.412500X-0.925000X0.412500X-0.925000X0*%
%ADD17RoundRect,0.225000X-0.250000X0.225000X-0.250000X-0.225000X0.250000X-0.225000X0.250000X0.225000X0*%
%ADD18RoundRect,0.200000X-0.275000X0.200000X-0.275000X-0.200000X0.275000X-0.200000X0.275000X0.200000X0*%
%ADD19RoundRect,0.250000X0.450000X-0.262500X0.450000X0.262500X-0.450000X0.262500X-0.450000X-0.262500X0*%
%ADD20R,4.200000X1.350000*%
%ADD21R,3.600000X1.270000*%
%ADD22RoundRect,0.225000X0.225000X0.250000X-0.225000X0.250000X-0.225000X-0.250000X0.225000X-0.250000X0*%
%ADD23RoundRect,0.250000X-0.262500X-0.450000X0.262500X-0.450000X0.262500X0.450000X-0.262500X0.450000X0*%
G04 APERTURE END LIST*
D10*
%TO.C,R3*%
X137554200Y-98666000D03*
X139204200Y-98666000D03*
%TD*%
D11*
%TO.C,C3*%
X141478000Y-92964000D03*
X141478000Y-91414000D03*
%TD*%
%TO.C,C10*%
X124206000Y-92215000D03*
X124206000Y-90665000D03*
%TD*%
D12*
%TO.C,C2*%
X128002500Y-87122000D03*
X131077500Y-87122000D03*
%TD*%
D11*
%TO.C,C11*%
X118110000Y-93231000D03*
X118110000Y-91681000D03*
%TD*%
D10*
%TO.C,R6*%
X131890000Y-100203000D03*
X133540000Y-100203000D03*
%TD*%
D11*
%TO.C,C9*%
X145288000Y-93739000D03*
X145288000Y-92189000D03*
%TD*%
%TO.C,C7*%
X135382000Y-93218000D03*
X135382000Y-91668000D03*
%TD*%
D13*
%TO.C,U4*%
X120208000Y-92568000D03*
X120208000Y-93218000D03*
X120208000Y-93868000D03*
X122108000Y-93868000D03*
X122108000Y-92568000D03*
%TD*%
%TO.C,U2*%
X139380000Y-102517000D03*
X139380000Y-101867000D03*
X139380000Y-101217000D03*
X137480000Y-101217000D03*
X137480000Y-102517000D03*
%TD*%
D14*
%TO.C,TP7*%
X152400000Y-109220000D03*
%TD*%
D15*
%TO.C,R2*%
X139204200Y-97142000D03*
X137554200Y-97142000D03*
%TD*%
D14*
%TO.C,TP1*%
X124460000Y-83820000D03*
%TD*%
%TO.C,TP6*%
X125730000Y-109220000D03*
%TD*%
D16*
%TO.C,C6*%
X141237500Y-87122000D03*
X138162500Y-87122000D03*
%TD*%
D10*
%TO.C,R5*%
X131890000Y-98679000D03*
X133540000Y-98679000D03*
%TD*%
D17*
%TO.C,C8*%
X141478000Y-101854000D03*
X141478000Y-103404000D03*
%TD*%
D18*
%TO.C,R4*%
X131953000Y-94920000D03*
X131953000Y-96570000D03*
%TD*%
D19*
%TO.C,R1*%
X118110000Y-96670500D03*
X118110000Y-94845500D03*
%TD*%
D11*
%TO.C,C4*%
X135382000Y-102782000D03*
X135382000Y-101232000D03*
%TD*%
%TO.C,C5*%
X151384000Y-92723000D03*
X151384000Y-91173000D03*
%TD*%
D14*
%TO.C,TP3*%
X134620000Y-83820000D03*
%TD*%
D20*
%TO.C,J2*%
X155194000Y-93695000D03*
X155194000Y-99345000D03*
D21*
X155394000Y-96520000D03*
%TD*%
%TO.C,J1*%
X113846000Y-96520000D03*
D20*
X114046000Y-99345000D03*
X114046000Y-93695000D03*
%TD*%
D14*
%TO.C,TP2*%
X144780000Y-83820000D03*
%TD*%
%TO.C,TP4*%
X116840000Y-109220000D03*
%TD*%
%TO.C,TP8*%
X134620000Y-109220000D03*
%TD*%
%TO.C,TP5*%
X143510000Y-109220000D03*
%TD*%
D22*
%TO.C,C1*%
X128283000Y-94856000D03*
X126733000Y-94856000D03*
%TD*%
D13*
%TO.C,U1*%
X137480000Y-93317000D03*
X137480000Y-93967000D03*
X137480000Y-94617000D03*
X139380000Y-94617000D03*
X139380000Y-93317000D03*
%TD*%
D23*
%TO.C,R7*%
X149455500Y-96520000D03*
X151280500Y-96520000D03*
%TD*%
D13*
%TO.C,U3*%
X147386000Y-93076000D03*
X147386000Y-93726000D03*
X147386000Y-94376000D03*
X149286000Y-94376000D03*
X149286000Y-93076000D03*
%TD*%
M02*
