%TF.GenerationSoftware,KiCad,Pcbnew,(6.0.2-0)*%
%TF.CreationDate,2022-04-12T18:59:19-07:00*%
%TF.ProjectId,bootstrap_exp,626f6f74-7374-4726-9170-5f6578702e6b,rev?*%
%TF.SameCoordinates,Original*%
%TF.FileFunction,Copper,L4,Bot*%
%TF.FilePolarity,Positive*%
%FSLAX46Y46*%
G04 Gerber Fmt 4.6, Leading zero omitted, Abs format (unit mm)*
G04 Created by KiCad (PCBNEW (6.0.2-0)) date 2022-04-12 18:59:19*
%MOMM*%
%LPD*%
G01*
G04 APERTURE LIST*
%TA.AperFunction,ComponentPad*%
%ADD10C,2.800000*%
%TD*%
%TA.AperFunction,SMDPad,CuDef*%
%ADD11R,4.200000X1.350000*%
%TD*%
%TA.AperFunction,ViaPad*%
%ADD12C,0.600000*%
%TD*%
%TA.AperFunction,Conductor*%
%ADD13C,0.150000*%
%TD*%
G04 APERTURE END LIST*
D10*
%TO.P,TP7,1,1*%
%TO.N,/AMP_OUT*%
X152400000Y-109220000D03*
%TD*%
%TO.P,TP1,1,1*%
%TO.N,/V+*%
X124460000Y-83820000D03*
%TD*%
%TO.P,TP6,1,1*%
%TO.N,/BOOT_BUF*%
X125730000Y-109220000D03*
%TD*%
%TO.P,TP3,1,1*%
%TO.N,GND*%
X134620000Y-83820000D03*
%TD*%
D11*
%TO.P,J2,2,Ext*%
%TO.N,GND*%
X155194000Y-93695000D03*
X155194000Y-99345000D03*
%TD*%
%TO.P,J1,2,Ext*%
%TO.N,GND*%
X114046000Y-93695000D03*
X114046000Y-99345000D03*
%TD*%
D10*
%TO.P,TP2,1,1*%
%TO.N,/V-*%
X144780000Y-83820000D03*
%TD*%
%TO.P,TP4,1,1*%
%TO.N,/BUF_OUT*%
X116840000Y-109220000D03*
%TD*%
%TO.P,TP8,1,1*%
%TO.N,GND*%
X134620000Y-109220000D03*
%TD*%
%TO.P,TP5,1,1*%
%TO.N,/FRONT_OUT*%
X143510000Y-109220000D03*
%TD*%
D12*
%TO.N,/V+*%
X151384000Y-93853000D03*
X124206000Y-93218000D03*
X141478000Y-94107000D03*
X135890000Y-103759000D03*
%TO.N,GND*%
X154813000Y-100584000D03*
X136398000Y-101854000D03*
X119380000Y-95123000D03*
X140208000Y-99695000D03*
X123063000Y-91059000D03*
X154813000Y-92456000D03*
X140208000Y-104013000D03*
X146558000Y-91567000D03*
X140208000Y-91821000D03*
X114427000Y-92456000D03*
X150241000Y-91567000D03*
X119380000Y-91059000D03*
X136525000Y-91948000D03*
X114427000Y-100584000D03*
%TO.N,/V-*%
X144145000Y-93726000D03*
X140970000Y-100711000D03*
X116967000Y-93218000D03*
X135763000Y-94234000D03*
%TD*%
D13*
%TO.N,GND*%
X114046000Y-99345000D02*
X114046000Y-100203000D01*
X114046000Y-100203000D02*
X114427000Y-100584000D01*
X114046000Y-93695000D02*
X114046000Y-92837000D01*
X114046000Y-92837000D02*
X114427000Y-92456000D01*
X154813000Y-92456000D02*
X155194000Y-92837000D01*
X155194000Y-92837000D02*
X155194000Y-93695000D01*
X154813000Y-100584000D02*
X155194000Y-100203000D01*
X155194000Y-100203000D02*
X155194000Y-99345000D01*
%TO.N,/V+*%
X141859000Y-97726500D02*
X145732500Y-93853000D01*
X140843000Y-102235000D02*
X141859000Y-101219000D01*
X143192500Y-92964000D02*
X150495000Y-92964000D01*
X141478000Y-94107000D02*
X142049500Y-94107000D01*
X139319000Y-102235000D02*
X140843000Y-102235000D01*
X141478000Y-94107000D02*
X136779000Y-94107000D01*
X135890000Y-103759000D02*
X137795000Y-103759000D01*
X136779000Y-94107000D02*
X135890000Y-93218000D01*
X145732500Y-93853000D02*
X151384000Y-93853000D01*
X142049500Y-94107000D02*
X143192500Y-92964000D01*
X150495000Y-92964000D02*
X151384000Y-93853000D01*
X137795000Y-103759000D02*
X139319000Y-102235000D01*
X135890000Y-93218000D02*
X124206000Y-93218000D01*
X141859000Y-101219000D02*
X141859000Y-97726500D01*
%TO.N,/V-*%
X144145000Y-93726000D02*
X143573500Y-93726000D01*
X136271000Y-94742000D02*
X135763000Y-94234000D01*
X144145000Y-93726000D02*
X144145000Y-94361000D01*
X135763000Y-94234000D02*
X117983000Y-94234000D01*
X142557500Y-94742000D02*
X136271000Y-94742000D01*
X117983000Y-94234000D02*
X116967000Y-93218000D01*
X143573500Y-93726000D02*
X142557500Y-94742000D01*
X144145000Y-94361000D02*
X140970000Y-97536000D01*
X140970000Y-97536000D02*
X140970000Y-100711000D01*
%TD*%
M02*
