M48
; DRILL file {KiCad (6.0.2-0)} date Tuesday, April 12, 2022 at 06:59:24 PM
; FORMAT={-:-/ absolute / metric / decimal}
; #@! TF.CreationDate,2022-04-12T18:59:24-07:00
; #@! TF.GenerationSoftware,Kicad,Pcbnew,(6.0.2-0)
; #@! TF.FileFunction,Plated,1,4,PTH
FMAT,2
METRIC
; #@! TA.AperFunction,Plated,PTH,ViaDrill
T1C0.300
; #@! TA.AperFunction,Plated,PTH,ComponentDrill
T2C1.600
%
G90
G05
T1
X114.427Y-92.456
X114.427Y-100.584
X116.967Y-93.218
X119.38Y-91.059
X119.38Y-95.123
X123.063Y-91.059
X124.206Y-93.218
X135.763Y-94.234
X135.89Y-103.759
X136.398Y-101.854
X136.525Y-91.948
X140.208Y-91.821
X140.208Y-99.695
X140.208Y-104.013
X140.97Y-100.711
X141.478Y-94.107
X144.145Y-93.726
X146.558Y-91.567
X150.241Y-91.567
X151.384Y-93.853
X154.813Y-92.456
X154.813Y-100.584
T2
X116.84Y-109.22
X124.46Y-83.82
X125.73Y-109.22
X134.62Y-83.82
X134.62Y-109.22
X143.51Y-109.22
X144.78Y-83.82
X152.4Y-109.22
T0
M30
