%FSLAX45Y45*%
G04 Gerber Fmt 4.5, Leading zero omitted, Abs format (unit mm)*
G04 Created by KiCad (PCBNEW (6.0.2-0)) date 2022-04-12 18:59:26*
%MOMM*%
%LPD*%
G01*
G04 APERTURE LIST*
%TA.AperFunction,Profile*%
%ADD10C,0.100000*%
%TD*%
%ADD11C,0.200000*%
G04 APERTURE END LIST*
D10*
X11162000Y-7852000D02*
X15762000Y-7852000D01*
X15762000Y-7852000D02*
X15762000Y-11452000D01*
X15762000Y-11452000D02*
X11162000Y-11452000D01*
X11162000Y-11452000D02*
X11162000Y-7852000D01*
D11*
X11414619Y-11767476D02*
X11414619Y-11567476D01*
X11462238Y-11567476D01*
X11490809Y-11577000D01*
X11509857Y-11596048D01*
X11519381Y-11615095D01*
X11528905Y-11653190D01*
X11528905Y-11681762D01*
X11519381Y-11719857D01*
X11509857Y-11738905D01*
X11490809Y-11757952D01*
X11462238Y-11767476D01*
X11414619Y-11767476D01*
X11614619Y-11767476D02*
X11614619Y-11634143D01*
X11614619Y-11672238D02*
X11624143Y-11653190D01*
X11633667Y-11643667D01*
X11652714Y-11634143D01*
X11671762Y-11634143D01*
X11738428Y-11767476D02*
X11738428Y-11634143D01*
X11738428Y-11567476D02*
X11728905Y-11577000D01*
X11738428Y-11586524D01*
X11747952Y-11577000D01*
X11738428Y-11567476D01*
X11738428Y-11586524D01*
X11862238Y-11767476D02*
X11843190Y-11757952D01*
X11833667Y-11738905D01*
X11833667Y-11567476D01*
X11967000Y-11767476D02*
X11947952Y-11757952D01*
X11938428Y-11738905D01*
X11938428Y-11567476D01*
X12195571Y-11767476D02*
X12195571Y-11567476D01*
X12262238Y-11710333D01*
X12328905Y-11567476D01*
X12328905Y-11767476D01*
X12509857Y-11767476D02*
X12509857Y-11662714D01*
X12500333Y-11643667D01*
X12481286Y-11634143D01*
X12443190Y-11634143D01*
X12424143Y-11643667D01*
X12509857Y-11757952D02*
X12490809Y-11767476D01*
X12443190Y-11767476D01*
X12424143Y-11757952D01*
X12414619Y-11738905D01*
X12414619Y-11719857D01*
X12424143Y-11700809D01*
X12443190Y-11691286D01*
X12490809Y-11691286D01*
X12509857Y-11681762D01*
X12605095Y-11634143D02*
X12605095Y-11834143D01*
X12605095Y-11643667D02*
X12624143Y-11634143D01*
X12662238Y-11634143D01*
X12681286Y-11643667D01*
X12690809Y-11653190D01*
X12700333Y-11672238D01*
X12700333Y-11729381D01*
X12690809Y-11748428D01*
X12681286Y-11757952D01*
X12662238Y-11767476D01*
X12624143Y-11767476D01*
X12605095Y-11757952D01*
X12786048Y-11748428D02*
X12795571Y-11757952D01*
X12786048Y-11767476D01*
X12776524Y-11757952D01*
X12786048Y-11748428D01*
X12786048Y-11767476D01*
X12786048Y-11643667D02*
X12795571Y-11653190D01*
X12786048Y-11662714D01*
X12776524Y-11653190D01*
X12786048Y-11643667D01*
X12786048Y-11662714D01*
M02*
